<svg xmlns="http://www.w3.org/2000/svg" width="414" height="129" viewBox="0 0 414 129">
    <defs>
        <clipPath id="hpp0zxppia"/>
    </defs>
    <g>
        <g fill="none" stroke="#e2a638" clip-path="url(#hpp0zxppia)" transform="translate(0 -607)">
            <path d="M29.214 167.992c58.664-30.744 83.953-11.181 135.719-78.082C199.151 45.687 243.658-.079 295.3-8.512c26.016-4.249 45.292-7.151 78.24 12.011s39.927 65.183 97.58 92.7 32 113.523-59.295 141.545S321.026 388.83 219.41 396.632s-24.453-73.425-135.43-69.515-113.43-128.381-54.766-159.125z" transform="rotate(36 -697.376 482.24)"/>
            <path stroke-width="2px" d="M33.627 146.8c61.04-25.478 89.367-6.492 140.79-65.3 33.99-38.87 78.922-78.695 133.8-84.108 27.645-2.727 48.145-4.524 84.663 14.436s46.829 61.3 110.36 88.979 41.29 105.093-54.916 126.64S360.2 361.416 251.678 364.038 220.942 295.9 102.14 294.552-27.413 172.282 33.627 146.8z" transform="rotate(9 -3655.756 102.73)"/>
        </g>
    </g>
</svg>
