<svg xmlns="http://www.w3.org/2000/svg" xmlns:xlink="http://www.w3.org/1999/xlink" id="logo_word" width="160" height="49.689" viewBox="0 0 160 49.689">
    <defs>
        <linearGradient id="linear-gradient" x1=".171" x2=".734" y1="1.253" y2=".214" gradientUnits="objectBoundingBox">
            <stop offset="0" stop-color="#efbc75"/>
            <stop offset="1" stop-color="#f7d8af"/>
        </linearGradient>
        <linearGradient id="linear-gradient-2" x1=".169" x2=".656" y1=".393" y2=".607" xlink:href="#linear-gradient"/>
        <linearGradient id="linear-gradient-3" x1="-.348" x2="1.797" y1="3.343" y2=".148" xlink:href="#linear-gradient"/>
        <linearGradient id="linear-gradient-4" x1="-.045" x2="1.333" y1="3.343" y2=".148" xlink:href="#linear-gradient"/>
        <style>
            .cls-7{fill-rule:evenodd;fill:#efbc75}
        </style>
    </defs>
    <g id="logodefault" transform="translate(16.476 6.443)">
        <g id="Group_5">
            <path id="Path_5" fill="url(#linear-gradient)" fill-rule="evenodd" d="M5.449 22.768c2.722 1.842 6.04 2.591 9.327 3.594.354.109.451.129.766.231a2.521 2.521 0 0 1-.518.115c-2.071.332-4.156.334-6.247.5-.605.048-1.085.324-1.115 1s.47.875 1.076.995c.792.158 1.544.3 2.341.428 1.174.182 2.326.45 3.5.615.156.023.313.037.469.055.37.043.742.083 1.113.128a1.239 1.239 0 0 1 .985.49c.346.646-1.882 1.187-2.266 1.249a5.86 5.86 0 0 1-3.666-.628.846.846 0 0 0-1.243.291 1.523 1.523 0 0 0 .35 1.478 6.972 6.972 0 0 0 8.372-.486c1.442-1.3 1.031-2.44.362-3.134a4.415 4.415 0 0 0-2.339-1.065c.585-.077.7-.091 1.089-.174.806-.171 1.132-.212 1.721-.347a1.126 1.126 0 0 0 .989-1.074 1.16 1.16 0 0 0-.883-1.163c-.33-.123-.677-.2-1.011-.315-1.881-.646-3.8-1.2-5.628-1.978-2.948-1.252-5.963-2.641-7.852-5.3a9.382 9.382 0 0 1-1.673-7A9.712 9.712 0 0 1 6.48 5.975a11.6 11.6 0 0 1 7.946-3.247 11.1 11.1 0 0 1 10.426 7.7c1.344 4.856-2.321 9.858-6.361 12.06-.087.048-.174.094-.262.14a1.017 1.017 0 0 0-.516 1.487 1.937 1.937 0 0 0 2.4.343c4.708-2.35 8.1-6.378 8.11-11.713a11.958 11.958 0 0 0-8.7-11.937A18.251 18.251 0 0 0 14.287 0a16.078 16.078 0 0 0-9.71 3.36 11.928 11.928 0 0 0 .872 19.407z"/>
            <path id="Path_6" fill="url(#linear-gradient-2)" fill-rule="evenodd" d="M2.242 6.023l1.181-1.529s-1.3-.6-.055-1.738c.754-.692 3.382.867 4.9 4.719.49 1.243 3 .862 2.339-.654a12.449 12.449 0 0 0-3.465-5.2A4.758 4.758 0 0 0 4.012.357 4.08 4.08 0 0 0 .9 1.777C-.292 3.219.619 5.2 2.241 6.023z" transform="translate(8.577 27.562)"/>
            <g id="Group_3" transform="translate(12.15 6.368)">
                <path id="Path_7" fill="url(#linear-gradient-3)" fill-rule="evenodd" d="M0 2.322A2.322 2.322 0 1 0 2.324 0 2.324 2.324 0 0 0 0 2.322"/>
            </g>
            <g id="Group_4" transform="translate(11.435 12.011)">
                <path id="Path_8" fill="url(#linear-gradient-4)" fill-rule="evenodd" d="M0 3.568v4.585a.752.752 0 0 0 .738.766h5.67a.753.753 0 0 0 .738-.766V3.568A3.63 3.63 0 0 0 3.572 0 3.634 3.634 0 0 0 0 3.568"/>
            </g>
        </g>
        <path id="Path_9" fill="#ffdfa7" fill-rule="evenodd" d="M133.206 20.683a6.9 6.9 0 0 1 2.444.4 5.125 5.125 0 0 1 1.8 1.111 4.823 4.823 0 0 1 1.119 1.669 5.387 5.387 0 0 1 .387 2.043 8.522 8.522 0 0 1-.51 2.9 7.767 7.767 0 0 1-1.493 2.534 7.25 7.25 0 0 1-2.43 1.784 7.826 7.826 0 0 1-3.328.673 6.519 6.519 0 0 1-2.361-.4 5.148 5.148 0 0 1-1.754-1.1 4.6 4.6 0 0 1-1.091-1.655 5.618 5.618 0 0 1-.374-2.069 9.183 9.183 0 0 1 .525-3.155 7.191 7.191 0 0 1 1.5-2.5 6.913 6.913 0 0 1 2.389-1.642 8.1 8.1 0 0 1 3.177-.595zm-17.594 0a9.463 9.463 0 0 1 4.28.957l-.685 2.534a10.915 10.915 0 0 0-1.647-.633 6.1 6.1 0 0 0-1.756-.271 3.693 3.693 0 0 0-1.139.155.677.677 0 0 0-.48.724.912.912 0 0 0 .452.738q.453.323 1.167.737c.329.19.7.409 1.111.659a7.261 7.261 0 0 1 1.153.867 4.778 4.778 0 0 1 .906 1.125 2.739 2.739 0 0 1 .37 1.409 3.491 3.491 0 0 1-.438 1.771 4.083 4.083 0 0 1-1.181 1.293 5.156 5.156 0 0 1-1.756.789 8.717 8.717 0 0 1-2.167.259 12.784 12.784 0 0 1-2.318-.219 9.359 9.359 0 0 1-2.072-.608l.74-2.586a8.066 8.066 0 0 0 1.592.582 7.428 7.428 0 0 0 1.893.246 4.727 4.727 0 0 0 1.523-.22.837.837 0 0 0 .645-.841.948.948 0 0 0-.562-.854q-.563-.31-1.3-.749-.713-.413-1.317-.828a6.819 6.819 0 0 1-1.044-.865 3.493 3.493 0 0 1-.685-1.01 3.186 3.186 0 0 1-.247-1.306 3.412 3.412 0 0 1 1.276-2.858 5.9 5.9 0 0 1 3.691-1zm-16.2 0a9.463 9.463 0 0 1 4.28.957l-.686 2.534a10.9 10.9 0 0 0-1.646-.633 6.112 6.112 0 0 0-1.757-.271 3.7 3.7 0 0 0-1.139.155.677.677 0 0 0-.48.724.914.914 0 0 0 .453.738q.453.323 1.166.737.5.285 1.112.659a7.352 7.352 0 0 1 1.153.867 4.829 4.829 0 0 1 .906 1.125 2.739 2.739 0 0 1 .37 1.409 3.481 3.481 0 0 1-.439 1.771 4.068 4.068 0 0 1-1.18 1.293 5.173 5.173 0 0 1-1.756.789 8.731 8.731 0 0 1-2.168.259 12.784 12.784 0 0 1-2.318-.219 9.366 9.366 0 0 1-2.071-.608l.74-2.586a8.032 8.032 0 0 0 1.591.582 7.436 7.436 0 0 0 1.894.246 4.732 4.732 0 0 0 1.523-.22.836.836 0 0 0 .644-.841.947.947 0 0 0-.562-.854q-.563-.31-1.3-.749-.714-.413-1.318-.828a6.809 6.809 0 0 1-1.043-.865 3.477 3.477 0 0 1-.686-1.01 3.2 3.2 0 0 1-.246-1.306 3.412 3.412 0 0 1 1.276-2.858 5.9 5.9 0 0 1 3.69-1zm-17.387 0a14.018 14.018 0 0 1 2.857.3 13.073 13.073 0 0 1 2.611.815l-2.187 11.739h-3.5l.629-3.518a11.978 11.978 0 0 1-.834 1.344 7.851 7.851 0 0 1-1.066 1.215 5.25 5.25 0 0 1-1.286.879 3.32 3.32 0 0 1-1.462.336 3.573 3.573 0 0 1-1.709-.375 3.03 3.03 0 0 1-1.119-1.018 4.538 4.538 0 0 1-.615-1.474 7.81 7.81 0 0 1-.191-1.758 10.411 10.411 0 0 1 .505-3.272 7.875 7.875 0 0 1 1.5-2.7 7.064 7.064 0 0 1 2.474-1.836 8.094 8.094 0 0 1 3.39-.673zM63.758 16L61.15 30.883h6.332l-.505 2.912H57L60.113 16zm69.117 7.32a2.679 2.679 0 0 0-1.547.452 3.885 3.885 0 0 0-1.119 1.19 5.862 5.862 0 0 0-.69 1.669 7.553 7.553 0 0 0-.235 1.862 3.235 3.235 0 0 0 .538 1.888 1.954 1.954 0 0 0 1.727.776 2.908 2.908 0 0 0 1.643-.466 3.841 3.841 0 0 0 1.161-1.2 5.984 5.984 0 0 0 .69-1.642 7.016 7.016 0 0 0 .234-1.759 3.858 3.858 0 0 0-.138-1.022 2.629 2.629 0 0 0-.428-.892 2.112 2.112 0 0 0-.745-.621 2.37 2.37 0 0 0-1.091-.233zm-50.958-.026a3.044 3.044 0 0 0-1.736.5 4.6 4.6 0 0 0-1.281 1.324 6.291 6.291 0 0 0-.806 1.849 8.276 8.276 0 0 0-.273 2.121 4.525 4.525 0 0 0 .055.711 2.57 2.57 0 0 0 .177.633 1.223 1.223 0 0 0 .342.466.87.87 0 0 0 .574.181 1.794 1.794 0 0 0 1.148-.479 6.945 6.945 0 0 0 1.121-1.215 11.321 11.321 0 0 0 1.012-1.655q.465-.918.82-1.8l.437-2.379a4.617 4.617 0 0 0-1.586-.259z" transform="translate(-16.691 -7.138)"/>
    </g>
    <path id="Rectangle_4" fill="none" d="M0 0H160V49.689H0z"/>
    <g id="logodefault-2" transform="translate(16.476 6.443)">
        <g id="Group_5-2">
            <path id="Path_5-2" d="M5.449 22.768c2.722 1.842 6.04 2.591 9.327 3.594.354.109.451.129.766.231a2.521 2.521 0 0 1-.518.115c-2.071.332-4.156.334-6.247.5-.605.048-1.085.324-1.115 1s.47.875 1.076.995c.792.158 1.544.3 2.341.428 1.174.182 2.326.45 3.5.615.156.023.313.037.469.055.37.043.742.083 1.113.128a1.239 1.239 0 0 1 .985.49c.346.646-1.882 1.187-2.266 1.249a5.86 5.86 0 0 1-3.666-.628.846.846 0 0 0-1.243.291 1.523 1.523 0 0 0 .35 1.478 6.972 6.972 0 0 0 8.372-.486c1.442-1.3 1.031-2.44.362-3.134a4.415 4.415 0 0 0-2.339-1.065c.585-.077.7-.091 1.089-.174.806-.171 1.132-.212 1.721-.347a1.126 1.126 0 0 0 .989-1.074 1.16 1.16 0 0 0-.883-1.163c-.33-.123-.677-.2-1.011-.315-1.881-.646-3.8-1.2-5.628-1.978-2.948-1.252-5.963-2.641-7.852-5.3a9.382 9.382 0 0 1-1.673-7A9.712 9.712 0 0 1 6.48 5.975a11.6 11.6 0 0 1 7.946-3.247 11.1 11.1 0 0 1 10.426 7.7c1.344 4.856-2.321 9.858-6.361 12.06-.087.048-.174.094-.262.14a1.017 1.017 0 0 0-.516 1.487 1.937 1.937 0 0 0 2.4.343c4.708-2.35 8.1-6.378 8.11-11.713a11.958 11.958 0 0 0-8.7-11.937A18.251 18.251 0 0 0 14.287 0a16.078 16.078 0 0 0-9.71 3.36 11.928 11.928 0 0 0 .872 19.407z" class="cls-7"/>
            <path id="Path_6-2" d="M2.242 6.023l1.181-1.529s-1.3-.6-.055-1.738c.754-.692 3.382.867 4.9 4.719.49 1.243 3 .862 2.339-.654a12.449 12.449 0 0 0-3.465-5.2A4.758 4.758 0 0 0 4.012.357 4.08 4.08 0 0 0 .9 1.777C-.292 3.219.619 5.2 2.241 6.023z" class="cls-7" transform="translate(8.577 27.562)"/>
            <g id="Group_3-2" transform="translate(12.15 6.368)">
                <path id="Path_7-2" d="M0 2.322A2.322 2.322 0 1 0 2.324 0 2.324 2.324 0 0 0 0 2.322" class="cls-7"/>
            </g>
            <g id="Group_4-2" transform="translate(11.435 12.011)">
                <path id="Path_8-2" d="M0 3.568v4.585a.752.752 0 0 0 .738.766h5.67a.753.753 0 0 0 .738-.766V3.568A3.63 3.63 0 0 0 3.572 0 3.634 3.634 0 0 0 0 3.568" class="cls-7"/>
            </g>
        </g>
        <path id="Path_9-2" d="M133.206 20.683a6.9 6.9 0 0 1 2.444.4 5.125 5.125 0 0 1 1.8 1.111 4.823 4.823 0 0 1 1.119 1.669 5.387 5.387 0 0 1 .387 2.043 8.522 8.522 0 0 1-.51 2.9 7.767 7.767 0 0 1-1.493 2.534 7.25 7.25 0 0 1-2.43 1.784 7.826 7.826 0 0 1-3.328.673 6.519 6.519 0 0 1-2.361-.4 5.148 5.148 0 0 1-1.754-1.1 4.6 4.6 0 0 1-1.091-1.655 5.618 5.618 0 0 1-.374-2.069 9.183 9.183 0 0 1 .525-3.155 7.191 7.191 0 0 1 1.5-2.5 6.913 6.913 0 0 1 2.389-1.642 8.1 8.1 0 0 1 3.177-.595zm-17.594 0a9.463 9.463 0 0 1 4.28.957l-.685 2.534a10.915 10.915 0 0 0-1.647-.633 6.1 6.1 0 0 0-1.756-.271 3.693 3.693 0 0 0-1.139.155.677.677 0 0 0-.48.724.912.912 0 0 0 .452.738q.453.323 1.167.737c.329.19.7.409 1.111.659a7.261 7.261 0 0 1 1.153.867 4.778 4.778 0 0 1 .906 1.125 2.739 2.739 0 0 1 .37 1.409 3.491 3.491 0 0 1-.438 1.771 4.083 4.083 0 0 1-1.181 1.293 5.156 5.156 0 0 1-1.756.789 8.717 8.717 0 0 1-2.167.259 12.784 12.784 0 0 1-2.318-.219 9.359 9.359 0 0 1-2.072-.608l.74-2.586a8.066 8.066 0 0 0 1.592.582 7.428 7.428 0 0 0 1.893.246 4.727 4.727 0 0 0 1.523-.22.837.837 0 0 0 .645-.841.948.948 0 0 0-.562-.854q-.563-.31-1.3-.749-.713-.413-1.317-.828a6.819 6.819 0 0 1-1.044-.865 3.493 3.493 0 0 1-.685-1.01 3.186 3.186 0 0 1-.247-1.306 3.412 3.412 0 0 1 1.276-2.858 5.9 5.9 0 0 1 3.691-1zm-16.2 0a9.463 9.463 0 0 1 4.28.957l-.686 2.534a10.9 10.9 0 0 0-1.646-.633 6.112 6.112 0 0 0-1.757-.271 3.7 3.7 0 0 0-1.139.155.677.677 0 0 0-.48.724.914.914 0 0 0 .453.738q.453.323 1.166.737.5.285 1.112.659a7.352 7.352 0 0 1 1.153.867 4.829 4.829 0 0 1 .906 1.125 2.739 2.739 0 0 1 .37 1.409 3.481 3.481 0 0 1-.439 1.771 4.068 4.068 0 0 1-1.18 1.293 5.173 5.173 0 0 1-1.756.789 8.731 8.731 0 0 1-2.168.259 12.784 12.784 0 0 1-2.318-.219 9.366 9.366 0 0 1-2.071-.608l.74-2.586a8.032 8.032 0 0 0 1.591.582 7.436 7.436 0 0 0 1.894.246 4.732 4.732 0 0 0 1.523-.22.836.836 0 0 0 .644-.841.947.947 0 0 0-.562-.854q-.563-.31-1.3-.749-.714-.413-1.318-.828a6.809 6.809 0 0 1-1.043-.865 3.477 3.477 0 0 1-.686-1.01 3.2 3.2 0 0 1-.246-1.306 3.412 3.412 0 0 1 1.276-2.858 5.9 5.9 0 0 1 3.69-1zm-17.387 0a14.018 14.018 0 0 1 2.857.3 13.073 13.073 0 0 1 2.611.815l-2.187 11.739h-3.5l.629-3.518a11.978 11.978 0 0 1-.834 1.344 7.851 7.851 0 0 1-1.066 1.215 5.25 5.25 0 0 1-1.286.879 3.32 3.32 0 0 1-1.462.336 3.573 3.573 0 0 1-1.709-.375 3.03 3.03 0 0 1-1.119-1.018 4.538 4.538 0 0 1-.615-1.474 7.81 7.81 0 0 1-.191-1.758 10.411 10.411 0 0 1 .505-3.272 7.875 7.875 0 0 1 1.5-2.7 7.064 7.064 0 0 1 2.474-1.836 8.094 8.094 0 0 1 3.39-.673zM63.758 16L61.15 30.883h6.332l-.505 2.912H57L60.113 16zm69.117 7.32a2.679 2.679 0 0 0-1.547.452 3.885 3.885 0 0 0-1.119 1.19 5.862 5.862 0 0 0-.69 1.669 7.553 7.553 0 0 0-.235 1.862 3.235 3.235 0 0 0 .538 1.888 1.954 1.954 0 0 0 1.727.776 2.908 2.908 0 0 0 1.643-.466 3.841 3.841 0 0 0 1.161-1.2 5.984 5.984 0 0 0 .69-1.642 7.016 7.016 0 0 0 .234-1.759 3.858 3.858 0 0 0-.138-1.022 2.629 2.629 0 0 0-.428-.892 2.112 2.112 0 0 0-.745-.621 2.37 2.37 0 0 0-1.091-.233zm-50.958-.026a3.044 3.044 0 0 0-1.736.5 4.6 4.6 0 0 0-1.281 1.324 6.291 6.291 0 0 0-.806 1.849 8.276 8.276 0 0 0-.273 2.121 4.525 4.525 0 0 0 .055.711 2.57 2.57 0 0 0 .177.633 1.223 1.223 0 0 0 .342.466.87.87 0 0 0 .574.181 1.794 1.794 0 0 0 1.148-.479 6.945 6.945 0 0 0 1.121-1.215 11.321 11.321 0 0 0 1.012-1.655q.465-.918.82-1.8l.437-2.379a4.617 4.617 0 0 0-1.586-.259z" class="cls-7" transform="translate(-16.691 -7.138)"/>
    </g>
</svg>
