<svg xmlns="http://www.w3.org/2000/svg" width="275.132" height="163.306" viewBox="0 0 275.132 163.306">
    <defs>
        <style>
            .cls-1,.cls-2{fill:#393939}.cls-2{stroke:#393939;stroke-width:.5px}
        </style>
    </defs>
    <g id="people" transform="translate(-77.855 -298.501)">
        <g id="people_group_b" transform="translate(.602 25.223)">
            <g id="Group_2984" transform="translate(137.155 377.057)">
                <path id="Path_6195" d="M1347.549 777.825a16.8 16.8 0 0 1-4.725-.6 14.08 14.08 0 0 1-8.4-7.208 17.117 17.117 0 0 1-1.655-5.226l-.063-.4c-.312-1.96-.565-3.975.066-5.211 1.153-2.254 5.414-2.533 9.888-2.5h.358a48.552 48.552 0 0 1 17.511 3.367 2.072 2.072 0 0 1 1.563 2.271 25.74 25.74 0 0 1-.84 7.086 11.447 11.447 0 0 1-4.109 6.143c-2.4 1.71-5.431 2.083-7.8 2.214-.554.039-1.158.064-1.794.064zm-5.438-19.256c-4.587 0-7.163.494-7.662 1.473-.4.791-.051 3 .117 4.058l.064.407a15.385 15.385 0 0 0 1.471 4.653 12.362 12.362 0 0 0 7.256 6.259 17.787 17.787 0 0 0 5.883.473c2.117-.121 4.806-.441 6.811-1.868a9.586 9.586 0 0 0 3.4-5.143 24.021 24.021 0 0 0 .763-6.576 1.556 1.556 0 0 0-.019-.347 3.741 3.741 0 0 0-.349-.149 46.672 46.672 0 0 0-16.835-3.237h-.361l-.54-.003z" class="cls-1" transform="translate(-1323.655 -743.306)"/>
                <path id="Path_6196" d="M1345.485 786.288a35.811 35.811 0 0 1-10.986-1.716.94.94 0 0 1-.652-.883 40.8 40.8 0 0 1 .569-9.075 14.677 14.677 0 0 1 4.525-8.182.942.942 0 1 1 1.216 1.439 12.814 12.814 0 0 0-3.9 7.137 36.4 36.4 0 0 0-.537 7.973 34.181 34.181 0 0 0 18.618.254 35.583 35.583 0 0 0 .322-7.566 12.348 12.348 0 0 0-2.843-7.126.942.942 0 1 1 1.39-1.273 14.22 14.22 0 0 1 3.329 8.22 39.814 39.814 0 0 1-.4 8.593.941.941 0 0 1-.671.791 35.626 35.626 0 0 1-9.98 1.414z" class="cls-1" transform="translate(-1322.378 -734.894)"/>
                <path id="Path_6197" d="M1361.938 792.971q-.421 0-.842-.011a.942.942 0 0 1-.913-.968.958.958 0 0 1 .968-.915 27.214 27.214 0 0 0 9.949-1.572 1.652 1.652 0 0 0 .275-.119c.005-.026.04-.215.052-.305a60.4 60.4 0 0 0-.529-22.78 21.906 21.906 0 0 0-1.3-4.276 16.035 16.035 0 0 0-6.777-7.113 28.007 28.007 0 0 0-9.688-3.141 14.524 14.524 0 0 0-6.346.1l-.375.119a6.724 6.724 0 0 1-1.358.343 8.173 8.173 0 0 1-.88.038c-.167 0-.339 0-.508.007-1.493.1-2.828 1.3-3.7 2.2a31.168 31.168 0 0 0-7.307 12.974 64.825 64.825 0 0 0-2.38 15.048l-.057.957c-.1 1.731-.207 3.514-.484 5.276a17.853 17.853 0 0 0 10.389 1.469.942.942 0 1 1 .3 1.86 19.745 19.745 0 0 1-12.169-1.962.935.935 0 0 1-.492-1.007 47.328 47.328 0 0 0 .577-5.745l.056-.964a68.243 68.243 0 0 1 2.453-15.484 33.006 33.006 0 0 1 7.766-13.746c1.09-1.115 2.785-2.612 4.922-2.759.215-.011.439-.011.64-.011a5.744 5.744 0 0 0 .648-.023 5.277 5.277 0 0 0 1-.264l.416-.132a16.078 16.078 0 0 1 7.18-.158 29.906 29.906 0 0 1 10.333 3.365 17.937 17.937 0 0 1 7.561 7.979 23.735 23.735 0 0 1 1.422 4.646 62.358 62.358 0 0 1 .548 23.5 2.056 2.056 0 0 1-1.556 1.879 29.107 29.107 0 0 1-9.794 1.695z" class="cls-1" transform="translate(-1327.747 -749.581)"/>
                <path id="Path_6198" d="M1339.659 771.137a.38.38 0 0 1-.064-.006 15.669 15.669 0 0 0-2.836-.233.378.378 0 0 1-.376-.373c0-.252.25-.382.5-.38a16.658 16.658 0 0 1 2.844.243.378.378 0 0 1-.064.749z" class="cls-1" transform="translate(-1320.125 -731.421)"/>
                <path id="Path_6199" d="M1336.693 772.146a.378.378 0 0 1-.021-.755l2.65-.137h.021a.377.377 0 0 1 .021.753l-2.651.139z" class="cls-1" transform="translate(-1320.182 -730.443)"/>
                <path id="Path_6200" d="M1336.369 773.392a.377.377 0 0 1-.028-.753l2.893-.228a.36.36 0 0 1 .4.347.377.377 0 0 1-.347.4l-2.892.228z" class="cls-1" transform="translate(-1320.465 -729.428)"/>
                <path id="Path_6201" d="M1336.625 774.251a.376.376 0 0 1-.023-.751l2.776-.169c.213-.058.384.145.4.354a.374.374 0 0 1-.352.4l-2.774.168z" class="cls-1" transform="translate(-1320.239 -728.618)"/>
                <path id="Path_6202" d="M1330.615 786.712h-.036a.378.378 0 0 1-.343-.377 194.8 194.8 0 0 1 2.764-31.643.377.377 0 0 1 .744.124 193.946 193.946 0 0 0-2.734 29.832.378.378 0 0 1 .222.413l-.243 1.341a.381.381 0 0 1-.374.31z" class="cls-1" transform="translate(-1325.549 -745.346)"/>
                <path id="Path_6203" d="M1333.523 788.261a.378.378 0 0 1-.379-.373l-.121-8.255c-.03-2.032-.06-4.133-.2-6.19-.053-.732-.119-1.467-.185-2.2-.147-1.616-.3-3.288-.286-4.945a40.394 40.394 0 0 1 .727-6.76c.427-2.373.957-4.745 1.574-7.054a.372.372 0 0 1 .461-.267.378.378 0 0 1 .268.461c-.612 2.288-1.138 4.642-1.56 6.992a39.462 39.462 0 0 0-.717 6.632c-.011 1.623.137 3.277.282 4.873.068.738.134 1.476.185 2.216.145 2.077.179 4.188.207 6.229l.122 8.256a.379.379 0 0 1-.371.384z" class="cls-1" transform="translate(-1323.684 -747.265)"/>
                <path id="Path_6204" d="M1334.872 763.172a.379.379 0 0 1-.377-.365 32.919 32.919 0 0 1 1.932-12.1.378.378 0 1 1 .71.258 32.092 32.092 0 0 0-1.887 11.818.379.379 0 0 1-.367.388z" class="cls-1" transform="translate(-1321.801 -748.804)"/>
                <path id="Path_6205" d="M1336.38 762.967a.378.378 0 0 1-.376-.377 28.994 28.994 0 0 1 2.749-12.227.372.372 0 0 1 .5-.181.376.376 0 0 1 .179.5 28.256 28.256 0 0 0-2.676 11.907.378.378 0 0 1-.376.378z" class="cls-1" transform="translate(-1320.457 -749.083)"/>
                <path id="Path_6206" d="M1341.607 763.07h-.034a.38.38 0 0 1-.343-.409c.29-3.367-.753-6.717-1.761-9.954-.047-.147-.092-.294-.137-.441l-.861 9.984a.38.38 0 0 1 .122.218.46.46 0 0 1-.286.484.491.491 0 0 1-.523-.137.608.608 0 0 1-.079-.5l1.045-12.067a.378.378 0 0 1 .339-.343.391.391 0 0 1 .4.271c.222.768.461 1.537.7 2.3 1.03 3.309 2.094 6.73 1.792 10.246a.379.379 0 0 1-.374.348z" class="cls-1" transform="translate(-1318.972 -749.296)"/>
                <path id="Path_6207" d="M1341.625 763.3a.376.376 0 0 1-.375-.356c-.23-4.167-.646-8.368-1.239-12.485a.377.377 0 1 1 .746-.107c.6 4.137 1.013 8.363 1.243 12.551a.372.372 0 0 1-.354.4z" class="cls-1" transform="translate(-1316.921 -749.182)"/>
                <path id="Path_6208" d="M1343.439 763.663h-.015a.379.379 0 0 1-.361-.392 36.808 36.808 0 0 0-1.674-12.6.376.376 0 0 1 .245-.473.366.366 0 0 1 .473.243 37.573 37.573 0 0 1 1.71 12.861.379.379 0 0 1-.378.361z" class="cls-1" transform="translate(-1315.716 -749.056)"/>
                <path id="Path_6209" d="M1344.776 764.015h-.053a.38.38 0 0 1-.322-.426 24.318 24.318 0 0 0-1.567-12.475.377.377 0 1 1 .7-.283 25.121 25.121 0 0 1 1.615 12.861.38.38 0 0 1-.373.323z" class="cls-1" transform="translate(-1314.448 -748.688)"/>
                <path id="Path_6210" d="M1345.7 764.584h-.006a.379.379 0 0 1-.371-.382c.055-4.246.111-8.638-.86-12.828a.38.38 0 0 1 .283-.452.39.39 0 0 1 .454.282c.989 4.277.934 8.715.878 13.008a.375.375 0 0 1-.378.372z" class="cls-1" transform="translate(-1312.995 -748.403)"/>
                <path id="Path_6211" d="M1346.963 763.976a.4.4 0 0 1-.066-.006.38.38 0 0 1-.307-.437 20.049 20.049 0 0 0 .3-3.088c.021-1.156-.058-2.333-.136-3.471l-.29-4.32a.373.373 0 0 1 .348-.4h.026a.374.374 0 0 1 .375.35l.292 4.32c.079 1.156.16 2.348.138 3.536a21.055 21.055 0 0 1-.307 3.2.38.38 0 0 1-.373.316z" class="cls-1" transform="translate(-1311.221 -747.222)"/>
                <path id="Path_6212" d="M1346.615 788.217a.38.38 0 0 1-.358-.5 73.393 73.393 0 0 0 3.064-33.814.377.377 0 0 1 .32-.426.384.384 0 0 1 .426.318 74.146 74.146 0 0 1-3.1 34.161.376.376 0 0 1-.352.261z" class="cls-1" transform="translate(-1311.419 -746.14)"/>
                <path id="Path_6213" d="M1345.612 773.949a.289.289 0 0 1-.09-.011.412.412 0 0 1-.256-.476c.667-2.64 1.219-5.333 1.64-8.011a.357.357 0 0 1 .429-.312.372.372 0 0 1 .313.429c-.411 2.627-.949 5.267-1.6 7.856a.4.4 0 0 1-.011.241.5.5 0 0 1-.425.284z" class="cls-1" transform="translate(-1312.287 -735.851)"/>
                <path id="Path_6214" d="M1348.115 787.449a.342.342 0 0 1-.134-.026.374.374 0 0 1-.216-.484 60.25 60.25 0 0 0 2.955-32.169.376.376 0 0 1 .3-.439.361.361 0 0 1 .439.3 60.975 60.975 0 0 1-2.992 32.573.373.373 0 0 1-.352.245z" class="cls-1" transform="translate(-1310.092 -745.394)"/>
            </g>
            <g id="Group_2985" transform="translate(289.975 377.285)">
                <path id="Path_6215" d="M1275.18 772.558c-.435 0-.872 0-1.307-.008-1.234-.013-2.585-.169-3.252-1.237a3.134 3.134 0 0 1-.376-1.719 8.544 8.544 0 0 1 1.021-3.93c.97-1.8 2.628-1.76 4.233-1.723.267.006.536.011.8.007q3.355-.028 6.706-.007a5.35 5.35 0 0 1 3.358.791c1.461 1.13 1.469 3.2 1.282 5.077a2.487 2.487 0 0 1-1 2.075 2.384 2.384 0 0 1-.938.22c-3.478.302-7.013.454-10.527.454zm-3.252-6.538a7.766 7.766 0 0 0-.928 3.585 2.354 2.354 0 0 0 .262 1.311c.472.757 1.589.872 2.619.879 3.911.057 7.873-.105 11.762-.441a1.88 1.88 0 0 0 .653-.135c.426-.226.544-.878.6-1.484.166-1.672.177-3.5-.992-4.407a4.767 4.767 0 0 0-2.9-.634q-3.353-.02-6.7.009c-.292 0-.555-.006-.828-.011-1.5-.023-2.8-.06-3.554 1.328z" class="cls-2" transform="translate(-1270.244 -752.967)"/>
                <path id="Path_6216" d="M1292.932 772.876q-3.726 0-7.431-.139a2.118 2.118 0 0 1-1.55-.522 1.98 1.98 0 0 1-.409-.81 9.719 9.719 0 0 1-.307-3.983c.62-4.642 6.685-4.083 10.316-3.749l.784.07c1.86.155 4.5.578 5.913 2.471 1.3 1.742 1.147 4.1.9 6.173a.377.377 0 0 1-.358.333c-2.608.106-5.235.156-7.858.156zm-8.948-5.354a8.94 8.94 0 0 0 .282 3.666 1.37 1.37 0 0 0 .238.516 1.5 1.5 0 0 0 1.028.277c4.943.188 9.954.188 14.9 0 .2-1.847.279-3.877-.791-5.312-1.218-1.631-3.512-2.017-5.372-2.171l-.791-.07c-3.357-.311-8.977-.829-9.5 3.1z" class="cls-2" transform="translate(-1258.843 -753.384)"/>
                <path id="Path_6217" d="M1279.431 767.3a.376.376 0 0 1-.089-.742 22.743 22.743 0 0 1 7.674-.527.376.376 0 0 1 .337.412.387.387 0 0 1-.415.337 21.972 21.972 0 0 0-7.419.508.358.358 0 0 1-.088.012z" class="cls-1" transform="translate(-1262.463 -751.214)"/>
                <path id="Path_6218" d="M1273.864 770.1a.942.942 0 0 1-.936-.855 8.875 8.875 0 0 1 4.141-7.83 20.065 20.065 0 0 1 8.161-2.795c3.406-.556 7.826-1 11.809.522 4.3 1.636 7.221 5.531 7.1 9.466a.931.931 0 0 1-.968.913.944.944 0 0 1-.915-.97c.106-3.508-2.883-6.506-5.89-7.651-3.561-1.356-7.66-.936-10.837-.424a18.113 18.113 0 0 0-7.4 2.493 6.984 6.984 0 0 0-3.327 6.1.944.944 0 0 1-.849 1.026c-.028.005-.053.005-.089.005z" class="cls-1" transform="translate(-1267.898 -758.109)"/>
                <path id="Path_6219" d="M1288.526 781.122a19 19 0 0 1-11.291-3.425 10.11 10.11 0 0 1-3.485-4.118 14.223 14.223 0 0 1-.834-4.849c-.028-.518.61.109 1.131.083.559-.068.719-.7.748-.177a12.582 12.582 0 0 0 .691 4.209 8.269 8.269 0 0 0 2.86 3.333 18.376 18.376 0 0 0 13.089 2.872 14.889 14.889 0 0 0 7.832-3.088 8.239 8.239 0 0 0 3.075-7.148c-.073-.514.447.074.963 0s.828-.778.9-.264a10.017 10.017 0 0 1-3.725 8.852 16.718 16.718 0 0 1-8.8 3.516 24.632 24.632 0 0 1-3.154.204z" class="cls-1" transform="translate(-1267.885 -749.665)"/>
                <path id="Path_6220" d="M1283.642 790.542a14.063 14.063 0 0 1-4.463-.636.94.94 0 0 1-.638-.776 31.242 31.242 0 0 1-.343-7.282 11.179 11.179 0 0 1 3.1-6.928.942.942 0 1 1 1.3 1.358 9.316 9.316 0 0 0-2.531 5.772 27.2 27.2 0 0 0 .26 6.235 20.635 20.635 0 0 0 6.984.151l6.994-.646a1.69 1.69 0 0 0 .471-.085 1.973 1.973 0 0 0 .075-.531 33.508 33.508 0 0 0-.011-6.773 10.639 10.639 0 0 0-2.51-5.777.942.942 0 0 1 1.373-1.292 12.3 12.3 0 0 1 3 6.809 34.831 34.831 0 0 1 .026 7.158 2.159 2.159 0 0 1-2.252 2.367l-6.994.646c-1.217.111-2.519.23-3.841.23z" class="cls-1" transform="translate(-1263.308 -744.927)"/>
                <path id="Path_6221" d="M1274.221 767.585a.378.378 0 0 1-.207-.693 15.664 15.664 0 0 1 3.525-1.738.377.377 0 1 1 .247.712 14.8 14.8 0 0 0-3.357 1.655.369.369 0 0 1-.208.064z" class="cls-1" transform="translate(-1267.064 -751.904)"/>
                <path id="Path_6222" d="M1275.471 768.4a.371.371 0 0 1-.29-.136.376.376 0 0 1 .049-.531 12.242 12.242 0 0 1 3.1-1.877.372.372 0 0 1 .491.2.378.378 0 0 1-.2.493 11.42 11.42 0 0 0-2.909 1.765.384.384 0 0 1-.241.086z" class="cls-1" transform="translate(-1265.961 -751.296)"/>
                <path id="Path_6223" d="M1286.615 768.033a.377.377 0 0 1-.2-.7l4.045-2.491a.376.376 0 1 1 .393.64l-4.045 2.489a.356.356 0 0 1-.193.062z" class="cls-1" transform="translate(-1256.117 -752.21)"/>
                <path id="Path_6224" d="M1288.712 767.868a.371.371 0 0 1-.288-.137.375.375 0 0 1 .047-.529 23.293 23.293 0 0 1 2.936-2.088.377.377 0 0 1 .386.648 22.467 22.467 0 0 0-2.84 2.019.377.377 0 0 1-.241.087z" class="cls-1" transform="translate(-1254.266 -751.968)"/>
                <path id="Path_6225" d="M1281.8 776.891a.377.377 0 0 1-.054-.75l.942-.139a3.27 3.27 0 0 1 1.051-.154.377.377 0 0 1 .058.749l-.945.139a3.266 3.266 0 0 1-1.052.155z" class="cls-1" transform="translate(-1260.368 -742.443)"/>
                <path id="Path_6226" d="M1280.717 779.378a.378.378 0 0 1-.073-.748l3.363-.659a.366.366 0 0 1 .443.3.374.374 0 0 1-.3.443l-3.363.661a.334.334 0 0 1-.07.003z" class="cls-1" transform="translate(-1261.328 -740.577)"/>
                <path id="Path_6227" d="M1281.347 778.086c-.149 0-.3 0-.45-.008a.377.377 0 0 1-.365-.39.345.345 0 0 1 .39-.363 12.51 12.51 0 0 0 3.284-.322.371.371 0 0 1 .454.279.377.377 0 0 1-.281.454 13.251 13.251 0 0 1-3.032.35z" class="cls-1" transform="translate(-1261.158 -741.432)"/>
                <path id="Path_6228" d="M1280.522 780.433a.377.377 0 0 1-.057-.749l4.469-.649a.39.39 0 0 1 .427.318.381.381 0 0 1-.319.429l-4.466.648z" class="cls-1" transform="translate(-1261.5 -739.631)"/>
            </g>
            <g id="Group_2988" transform="translate(192.851 381.777)">
                <path id="Path_6251" d="M1357.392 741.272c-.94 0-1.826-.038-2.637-.087-3.781-.225-9.222-.954-12.807-4.64-3.1-3.189-4.386-8.324-3.519-14.094.419-2.782 1.411-4.537 3.036-5.369a1.007 1.007 0 0 1 .916 1.794c-1 .513-1.647 1.782-1.963 3.875-.771 5.139.312 9.657 2.974 12.391 2.359 2.424 6.007 3.706 11.484 4.034a24.466 24.466 0 0 0 8.8-.745 11.361 11.361 0 0 0 6.635-4.944 12.464 12.464 0 0 0 1.32-3.871c.721-3.737.563-6.934-.971-9.392a1.006 1.006 0 0 1 1.707-1.065c1.8 2.891 2.06 6.6 1.243 10.837a14.612 14.612 0 0 1-1.548 4.483 13.2 13.2 0 0 1-7.8 5.874 23.456 23.456 0 0 1-6.87.919z" class="cls-1" transform="translate(-1338.163 -704.641)"/>
                <path id="Path_6252" d="M1351.927 748.493c-2.641 0-4.8-.717-7.991-1.156a1.857 1.857 0 0 1-1.387-.7 2.465 2.465 0 0 1-.334-1.427 41.808 41.808 0 0 1 .688-8.827 14.87 14.87 0 0 1 4.4-8.012 1.007 1.007 0 1 1 1.325 1.518 12.916 12.916 0 0 0-3.761 6.929 40.515 40.515 0 0 0-.64 8.4 2.137 2.137 0 0 0 .014.322c0-.028.1.012.3.068 5.061 1.409 10.563 1.881 15.571.287a25.443 25.443 0 0 0-1.447-16.678 1.007 1.007 0 0 1 1.82-.862 25.808 25.808 0 0 1 1.435 18.027 1 1 0 0 1-.642.672 28.842 28.842 0 0 1-9.351 1.439zm-7.681-2.93z" class="cls-1" transform="translate(-1334.06 -693.686)"/>
                <path id="Path_6253" d="M1348.7 731.7h-.04l-2.577-.259a.4.4 0 0 1-.359-.443.432.432 0 0 1 .441-.358l2.577.26a.4.4 0 0 1-.042.8z" class="cls-1" transform="translate(-1330.508 -690.797)"/>
                <path id="Path_6254" d="M1346.931 732.91a13.214 13.214 0 0 1-1.5-.087.4.4 0 1 1 .09-.8 12.966 12.966 0 0 0 2.253.052.394.394 0 0 1 .429.372.4.4 0 0 1-.374.429c-.297.024-.599.034-.898.034z" class="cls-1" transform="translate(-1331.161 -689.397)"/>
                <path id="Path_6255" d="M1345.036 734.083a.4.4 0 0 1-.062-.8 10.266 10.266 0 0 1 2.947-.042.4.4 0 0 1 .346.453.419.419 0 0 1-.453.346 9.375 9.375 0 0 0-2.716.036.32.32 0 0 1-.062.007z" class="cls-1" transform="translate(-1331.609 -688.248)"/>
                <path id="Path_6256" d="M1347.932 735.95h-.034l-3.217-.284a.4.4 0 0 1 .071-.8l3.217.286a.4.4 0 0 1-.036.8z" class="cls-1" transform="translate(-1331.934 -686.526)"/>
                <path id="Path_6257" fill="#393939" stroke="#393939" d="M1355.974 730.969c-.918 0-1.86-.05-2.822-.145-4.783-.481-10.665-2.436-12.835-6.492a5.639 5.639 0 0 1-.246-4.564 14.2 14.2 0 0 1 6.694-7.44c3.859-1.85 8.7-1.971 13.642-.336a19.913 19.913 0 0 1 5.88 3c.529.4 1.033.839 1.534 1.276a17.82 17.82 0 0 0 2.568 1.975 8.913 8.913 0 0 0 5.788 1.123.409.409 0 0 1 .393.169.4.4 0 0 1 .022.423c-1.2 2.2-3.3 3.7-5.152 5.023a35.612 35.612 0 0 1-8 4.717 21.18 21.18 0 0 1-7.466 1.271zm-2.339-19.315a15.006 15.006 0 0 0-6.522 1.4 13.5 13.5 0 0 0-6.275 6.963 4.863 4.863 0 0 0 .191 3.932c2.019 3.778 7.628 5.614 12.2 6.071a21.916 21.916 0 0 0 9.928-1.075 34.811 34.811 0 0 0 7.811-4.618 17.786 17.786 0 0 0 4.495-4.072 9.508 9.508 0 0 1-5.486-1.317 18.726 18.726 0 0 1-2.687-2.06c-.489-.425-.981-.851-1.494-1.242a19.208 19.208 0 0 0-5.645-2.883 20.928 20.928 0 0 0-6.516-1.099zm-6.7 1.039z" transform="translate(-1336.597 -710.848)"/>
                <path id="Path_6258" d="M1340.237 721.962a.351.351 0 0 1-.062-.006.4.4 0 0 1-.334-.461c.584-3.706 3.817-6.947 8.241-8.258a16.816 16.816 0 0 1 9.17-.083 33.8 33.8 0 0 1 3.459 1.238 17.316 17.316 0 0 0 6.1 1.627 2.288 2.288 0 0 0 1.931-.672.4.4 0 0 1 .664.457 2.96 2.96 0 0 1-2.6 1.023 18.231 18.231 0 0 1-6.387-1.687 33.6 33.6 0 0 0-3.376-1.21 16.086 16.086 0 0 0-8.727.076c-3.134.93-7.024 3.483-7.676 7.616a.4.4 0 0 1-.403.34z" class="cls-1" transform="translate(-1336.471 -709.115)"/>
                <path id="Path_6259" d="M1340.333 721.356a.386.386 0 0 1-.149-.03.4.4 0 0 1-.225-.522c1.459-3.674 5.7-5.2 8.884-5.4a33.026 33.026 0 0 1 6.81.51c1.218.175 2.479.356 3.714.457 2.929.23 5.94 1.007 8.529-1.506a.4.4 0 0 1 .562.578c-2.806 2.718-6.07 1.971-9.154 1.729-1.262-.1-2.536-.286-3.766-.463a33.286 33.286 0 0 0-6.643-.5c-2.953.181-6.867 1.572-8.19 4.9a.4.4 0 0 1-.372.247z" class="cls-1" transform="translate(-1336.374 -707.887)"/>
                <path id="Path_6260" d="M1340.53 720.718a.365.365 0 0 1-.143-.028.4.4 0 0 1-.231-.518 4.46 4.46 0 0 1 3.382-2.585 11.754 11.754 0 0 1 4.157.147c.636.1 1.275.211 1.911.32a46.738 46.738 0 0 0 9.9.982c2.581-.109 7.374-.813 10.494-4.336a.4.4 0 1 1 .6.533c-2.458 2.776-6.385 4.413-11.062 4.61a49.477 49.477 0 0 1-10.073-1c-.636-.107-1.271-.215-1.906-.32a10.972 10.972 0 0 0-3.869-.149 3.7 3.7 0 0 0-2.788 2.08.4.4 0 0 1-.372.264z" class="cls-1" transform="translate(-1336.173 -707.083)"/>
                <path id="Path_6261" d="M1355.283 721.881a29.5 29.5 0 0 1-8.725-1.3l-.377-.121c-1.909-.6-3.879-1.21-5.447-.314a.4.4 0 0 1-.552-.149.409.409 0 0 1 .149-.552c1.88-1.073 4.115-.372 6.089.25l.377.115a29.656 29.656 0 0 0 26.259-4.6.4.4 0 1 1 .489.64 30.477 30.477 0 0 1-18.262 6.031z" class="cls-1" transform="translate(-1336.171 -706.512)"/>
            </g>
            <g id="Group_3020" transform="translate(242.034 379.916)">
                <path id="Path_6229" d="M1260.923 763.16a13.913 13.913 0 0 1-2.221-.171 15.958 15.958 0 0 1-9.531-5.391 17.769 17.769 0 0 1-3.472-15.206 14.325 14.325 0 0 1 11.259-11.238 24.446 24.446 0 0 1 9.062-.264 15.279 15.279 0 0 1 5.192 1.5c3.25 1.751 5.583 5.489 6.245 10a39.924 39.924 0 0 1 .3 4.747l.115 5.011a13.634 13.634 0 0 1-.543 5.083 8.856 8.856 0 0 1-7.3 5.384 28.059 28.059 0 0 1-3.151.166 26.039 26.039 0 0 0-2.977.156 23.246 23.246 0 0 1-2.978.223zm1.023-30.681a19.589 19.589 0 0 0-4.552.5 12.439 12.439 0 0 0-9.86 9.835 15.837 15.837 0 0 0 3.079 13.566 14.061 14.061 0 0 0 8.389 4.746 16.167 16.167 0 0 0 4.665-.062 27.959 27.959 0 0 1 3.192-.171 25.729 25.729 0 0 0 2.938-.153 7.059 7.059 0 0 0 5.772-4.163 12.085 12.085 0 0 0 .424-4.39l-.115-5.007a37.61 37.61 0 0 0-.288-4.521c-.573-3.926-2.544-7.146-5.271-8.615a13.607 13.607 0 0 0-4.553-1.3 28.418 28.418 0 0 0-3.82-.265z" class="cls-1" transform="translate(-1241.481 -730.596)"/>
                <path id="Path_6230" d="M1259.788 764.967a27.566 27.566 0 0 1-8.988-1.5 2.486 2.486 0 0 1-1.006-.574 2.449 2.449 0 0 1-.6-1.352 18.442 18.442 0 0 1 3.595-14.43.942.942 0 0 1 1.482 1.162 16.533 16.533 0 0 0-3.224 12.937 1.2 1.2 0 0 0 .1.369 1.92 1.92 0 0 0 .275.111 25.8 25.8 0 0 0 14.918.542 2.071 2.071 0 0 0 .94-.418 1.956 1.956 0 0 0 .292-.823 17.673 17.673 0 0 0-2.4-12.835.942.942 0 0 1 1.589-1.011 19.584 19.584 0 0 1 2.659 14.215 2.98 2.98 0 0 1-2.593 2.693 27.476 27.476 0 0 1-7.039.914z" class="cls-1" transform="translate(-1238.235 -716.361)"/>
                <path id="Path_6231" d="M1252.12 750.2a.376.376 0 0 1-.045-.75l1.915-.233a.376.376 0 1 1 .09.746l-1.913.233z" class="cls-1" transform="translate(-1235.738 -714.155)"/>
                <path id="Path_6232" d="M1253.953 752.569a.319.319 0 0 1-.058-.006 10.675 10.675 0 0 0-2.328-.105.35.35 0 0 1-.4-.352.374.374 0 0 1 .35-.4 11.179 11.179 0 0 1 2.495.115.376.376 0 0 1-.06.748z" class="cls-1" transform="translate(-1236.247 -711.976)"/>
                <path id="Path_6233" d="M1252.167 751.361c-.17 0-.341 0-.509-.009a.377.377 0 0 1 .026-.753 12.7 12.7 0 0 0 2.345-.119.376.376 0 1 1 .1.746 14.409 14.409 0 0 1-1.962.135z" class="cls-1" transform="translate(-1236.135 -713.041)"/>
                <path id="Path_6234" d="M1255.037 753.786h-.03l-3.489-.273a.375.375 0 0 1-.346-.4.35.35 0 0 1 .4-.345l3.489.271a.377.377 0 0 1-.028.753z" class="cls-1" transform="translate(-1236.246 -711.031)"/>
                <path id="Path_6235" d="M1248.837 746.941a4.987 4.987 0 0 1-3.4-1.149 6.375 6.375 0 0 1-1.734-3.2 12.272 12.272 0 0 1-.448-2.032.94.94 0 0 1 1.269-.975 5.369 5.369 0 0 1 1.3.765 2.757 2.757 0 0 0 1.235.631c1.525.222 3.088-.654 4.7-1.646 1.917-1.181 3.824-2.216 5.96-1.894a5.109 5.109 0 0 1 3.5 2.239.939.939 0 0 1-.175 1.228c-2.589 2.232-6.1 4.909-10.25 5.809a9.145 9.145 0 0 1-1.957.224zm-3.211-4.474a4.2 4.2 0 0 0 1.052 1.915c1.028.908 2.763.7 3.71.5 3.384-.733 6.374-2.849 8.707-4.795a3.227 3.227 0 0 0-1.659-.78c-1.516-.241-3.09.644-4.7 1.636-1.913 1.179-3.821 2.209-5.954 1.906a3.611 3.611 0 0 1-1.156-.382z" class="cls-1" transform="translate(-1243.244 -724.604)"/>
                <path id="Path_6236" d="M1264.634 745.588c-.265 0-.537-.005-.809-.022a12.361 12.361 0 0 1-7.979-3.3l-.183-.175a1.786 1.786 0 0 1-.544-2.459 6.085 6.085 0 0 1 1.883-1.6 6.951 6.951 0 0 1 4.8-1.226 10.28 10.28 0 0 1 3.436 1.4 8.136 8.136 0 0 0 2.919 1.188c1.571.192 3.17-.714 4.386-1.514a.94.94 0 0 1 1.341 1.239 13.438 13.438 0 0 1-3.926 5.022 9.415 9.415 0 0 1-5.324 1.447zm-7.858-5.033l.177.168.213.2a10.626 10.626 0 0 0 6.768 2.761 8.187 8.187 0 0 0 4.973-1.107 7.108 7.108 0 0 0 1.627-1.6 6.274 6.274 0 0 1-2.582.283 9.716 9.716 0 0 1-3.629-1.416 8.7 8.7 0 0 0-2.8-1.179 5.125 5.125 0 0 0-3.406.885 6.8 6.8 0 0 0-1.341 1.005z" class="cls-1" transform="translate(-1233.031 -725.167)"/>
                <path id="Path_6237" d="M1250.092 743.995a.942.942 0 0 1-.831-1.386l2.188-4.1a1.251 1.251 0 0 1 1.6-.7.94.94 0 0 1 .5 1.235.929.929 0 0 1-.52.5l-2.1 3.945a.941.941 0 0 1-.837.506z" class="cls-1" transform="translate(-1238.029 -724.304)"/>
                <path id="Path_6238" d="M1248.04 746.011a.93.93 0 0 1-.294-.045.944.944 0 0 1-.6-1.188 38.728 38.728 0 0 1 2.715-6.335.942.942 0 1 1 1.659.894 36.976 36.976 0 0 0-2.584 6.026.939.939 0 0 1-.896.648z" class="cls-1" transform="translate(-1239.842 -724.103)"/>
                <path id="Path_6239" d="M1246.191 744.622a.941.941 0 0 1-.8-1.435 13.158 13.158 0 0 0 1.491-3.448.941.941 0 0 1 1.817.493 15.118 15.118 0 0 1-1.7 3.941.946.946 0 0 1-.808.449z" class="cls-1" transform="translate(-1241.474 -723.134)"/>
                <path id="Path_6240" d="M1260.02 743.962a1.06 1.06 0 0 1-.13-.009.942.942 0 0 1-.8-1.06 4.211 4.211 0 0 0-.292-.394 26.093 26.093 0 0 1-2.471-3.659.942.942 0 0 1 1.644-.921 24.128 24.128 0 0 0 2.294 3.4 2.4 2.4 0 0 1 .691 1.83.942.942 0 0 1-.936.813z" class="cls-1" transform="translate(-1231.801 -724.553)"/>
                <path id="Path_6241" d="M1262.738 745.017a.947.947 0 0 1-.77-.4 36.94 36.94 0 0 1-2.751-4.557c-.126-.252-.393-.776-.6-.831a.941.941 0 1 1 .467-1.823 3.056 3.056 0 0 1 1.811 1.8 34.55 34.55 0 0 0 2.61 4.324.943.943 0 0 1-.224 1.313.956.956 0 0 1-.543.174z" class="cls-1" transform="translate(-1230.293 -724.606)"/>
                <path id="Path_6242" d="M1264.241 743.259a.944.944 0 0 1-.584-.2 15.615 15.615 0 0 1-3.387-3.693.942.942 0 1 1 1.574-1.034 13.72 13.72 0 0 0 2.979 3.247.942.942 0 0 1-.582 1.682z" class="cls-1" transform="translate(-1228.346 -724.142)"/>
            </g>
            <g id="Group_3021" transform="translate(79.398 371.567)">
                <path id="Path_6174" d="M1370.674 773.709a12.024 12.024 0 0 1-3.345-.476 2.2 2.2 0 0 1-1.178-.7 2.277 2.277 0 0 1-.417-1.056 48.609 48.609 0 0 1-1.143-9.624 7.123 7.123 0 0 1 .605-3.141c1.522-3.008 6.548-2.726 8.9-1.906a1.956 1.956 0 0 1 .983.644 2.034 2.034 0 0 1 .362 1.1 83.139 83.139 0 0 1 .269 12.279 2.913 2.913 0 0 1-.33 1.374 2.8 2.8 0 0 1-1.828 1.149 11.962 11.962 0 0 1-2.878.357zm-.153-15.754c-1.614 0-3.232.393-3.805 1.527a5.516 5.516 0 0 0-.423 2.4 47.576 47.576 0 0 0 1.112 9.289 1.538 1.538 0 0 0 .08.313 1.141 1.141 0 0 0 .318.119 10.315 10.315 0 0 0 5.348.107c.43-.107.688-.23.772-.369a1.679 1.679 0 0 0 .1-.592 81.478 81.478 0 0 0-.265-12.032 1.634 1.634 0 0 0-.034-.243c0 .01-.058-.013-.177-.058a9.826 9.826 0 0 0-3.026-.461z" class="cls-1" transform="translate(-1361.218 -742.909)"/>
                <path id="Path_6175" d="M1388.752 774.5a15.123 15.123 0 0 1-3.835-.5 2.677 2.677 0 0 1-1.515-.864 2.818 2.818 0 0 1-.481-1.738l-.245-9.395a4.233 4.233 0 0 1 .381-2.233 3.411 3.411 0 0 1 1.112-1.143 7 7 0 0 1 5.268-.913 4.851 4.851 0 0 1 3.21 2.231 5.686 5.686 0 0 1 .612 2.037 42.7 42.7 0 0 1 .493 6.946c-.019 1.559-.221 3.5-1.648 4.635a5.308 5.308 0 0 1-3.333.932zm-.833-15.246a5.081 5.081 0 0 0-2.79.784 1.78 1.78 0 0 0-.583.566 2.758 2.758 0 0 0-.167 1.357l.245 9.4a1.621 1.621 0 0 0 .119.733 1.457 1.457 0 0 0 .609.267 13.359 13.359 0 0 0 3.4.44h.019a3.6 3.6 0 0 0 2.275-.561c.867-.694.995-2.141 1.008-3.326a41.041 41.041 0 0 0-.473-6.667 4.253 4.253 0 0 0-.4-1.447 3.188 3.188 0 0 0-2.114-1.42 5.085 5.085 0 0 0-1.149-.125zm-3.27.082z" class="cls-1" transform="translate(-1348.556 -742.002)"/>
                <path id="Path_6176" d="M1395.438 762.408a.853.853 0 0 1-.83-.672 8.952 8.952 0 0 0-5.033-5.939 16.893 16.893 0 0 0-8.208-1.347 17.085 17.085 0 0 0-6.288 1.389 9.4 9.4 0 0 0-4.522 4.118.85.85 0 0 1-1.515-.77 11.077 11.077 0 0 1 5.327-4.892 18.715 18.715 0 0 1 6.907-1.542 18.294 18.294 0 0 1 9.041 1.513 10.669 10.669 0 0 1 5.957 7.115.852.852 0 0 1-.655 1.008.93.93 0 0 1-.181.019z" class="cls-1" transform="translate(-1358.165 -745.393)"/>
                <path id="Path_6177" d="M1382.551 774.282a24.352 24.352 0 0 1-5.351-.6 14.091 14.091 0 0 1-5.239-2.185 8.034 8.034 0 0 1-3.312-4.846.85.85 0 1 1 1.666-.338 6.423 6.423 0 0 0 2.639 3.8 12.5 12.5 0 0 0 4.62 1.909 22.74 22.74 0 0 0 11.046-.272c1.869-.519 5.128-1.8 5.941-4.583a.85.85 0 0 1 1.631.478c-1.041 3.567-4.907 5.13-7.118 5.742a24.327 24.327 0 0 1-6.523.895z" class="cls-1" transform="translate(-1358.387 -736.341)"/>
                <path id="Path_6178" d="M1381.034 785.113a25.062 25.062 0 0 1-9.253-1.763.854.854 0 0 1-.536-.787 36.734 36.734 0 0 1 .573-6.618c.352-1.966 1.073-4.747 3.265-6.235a.851.851 0 0 1 .954 1.41c-1.659 1.124-2.248 3.464-2.545 5.123a35.03 35.03 0 0 0-.544 5.734 23.384 23.384 0 0 0 14.164.631 1.108 1.108 0 0 0 .435-.17c.005-.025.012-.18.014-.253a75.968 75.968 0 0 0-.137-8.575 5.15 5.15 0 0 0-.32-1.7 1.244 1.244 0 0 0-.842-.763.85.85 0 0 1-.726-.957.868.868 0 0 1 .959-.726 2.87 2.87 0 0 1 2.156 1.745 6.536 6.536 0 0 1 .469 2.282 77.65 77.65 0 0 1 .141 8.764 1.907 1.907 0 0 1-1.7 2 24.889 24.889 0 0 1-6.527.858z" class="cls-1" transform="translate(-1356.557 -733.668)"/>
                <path id="Path_6179" d="M1400.29 765.405a.872.872 0 0 1-.131-.01.849.849 0 0 1-.71-.969 10.694 10.694 0 0 0-1.932-8.422 15.094 15.094 0 0 0-5.079-3.625 23 23 0 0 0-4.834-1.889c-4.738-1.133-10.262.265-15.169 3.824a11.3 11.3 0 0 0-3.367 3.431 4.94 4.94 0 0 0-.491 4.251.851.851 0 1 1-1.575.644 6.65 6.65 0 0 1 .592-5.742 13.231 13.231 0 0 1 3.841-3.96c5.314-3.853 11.357-5.344 16.565-4.1a24.584 24.584 0 0 1 5.2 2.023 16.547 16.547 0 0 1 5.637 4.069 12.393 12.393 0 0 1 2.294 9.757.849.849 0 0 1-.841.718z" class="cls-1" transform="translate(-1359.813 -748.408)"/>
                <path id="Path_6180" d="M1365.489 763.5a.34.34 0 0 1-.294-.512l2.979-5.1a2.717 2.717 0 0 1 .985-1.117.339.339 0 1 1 .321.6 2.225 2.225 0 0 0-.719.862l-2.977 5.1a.343.343 0 0 1-.295.167z" class="cls-1" transform="translate(-1360.827 -742.578)"/>
                <path id="Path_6181" d="M1365.945 765.9a.341.341 0 0 1-.2-.616 4.954 4.954 0 0 0 1.329-1.93l.111-.228a22.37 22.37 0 0 1 4.428-6.155.34.34 0 1 1 .478.484 21.726 21.726 0 0 0-4.293 5.969l-.11.226a5.437 5.437 0 0 1-1.54 2.182.333.333 0 0 1-.203.068z" class="cls-1" transform="translate(-1360.507 -742.476)"/>
                <path id="Path_6182" d="M1366.111 768.41a.34.34 0 0 1-.286-.524l.709-1.107a92.719 92.719 0 0 1 6.322-8.689.34.34 0 0 1 .524.432 91.831 91.831 0 0 0-6.273 8.624l-.711 1.109a.341.341 0 0 1-.285.155z" class="cls-1" transform="translate(-1360.39 -741.714)"/>
                <path id="Path_6183" d="M1366.227 769.928a.349.349 0 0 1-.172-.046.341.341 0 0 1-.123-.466 54.7 54.7 0 0 1 6.643-9.106.34.34 0 1 1 .505.454 54.18 54.18 0 0 0-6.56 8.993.342.342 0 0 1-.293.171z" class="cls-1" transform="translate(-1360.309 -740.151)"/>
                <path id="Path_6184" d="M1367.527 769.027a.341.341 0 0 1-.282-.53l.147-.226a.362.362 0 0 1 .112-.109c1.488-1.918 2.937-3.906 4.31-5.912a.34.34 0 1 1 .561.384c-1.457 2.129-3 4.236-4.581 6.262a.34.34 0 0 1-.267.131z" class="cls-1" transform="translate(-1359.399 -738.818)"/>
                <path id="Path_6185" d="M1369.183 767.184a.342.342 0 0 1-.225-.085.338.338 0 0 1-.031-.479c.741-.848 1.49-1.741 2.222-2.647a.34.34 0 0 1 .529.428c-.738.913-1.491 1.809-2.241 2.666a.337.337 0 0 1-.254.117z" class="cls-1" transform="translate(-1358.239 -737.595)"/>
                <path id="Path_6186" d="M1392.22 767.641a.339.339 0 0 1-.312-.2 13.3 13.3 0 0 0-3.518-4.521 34.719 34.719 0 0 0-4.814-3.335.338.338 0 0 1-.116-.466.341.341 0 0 1 .468-.116 35.082 35.082 0 0 1 4.907 3.4 13.975 13.975 0 0 1 3.693 4.758.338.338 0 0 1-.309.479z" class="cls-1" transform="translate(-1348.035 -741.021)"/>
                <path id="Path_6187" d="M1391.292 764.27a.346.346 0 0 1-.267-.129 21.464 21.464 0 0 0-5.858-5.093.336.336 0 0 1-.34.162.32.32 0 0 1-.282-.369l.009-.047.054-.32a.34.34 0 0 1 .5-.243 22.1 22.1 0 0 1 6.448 5.487.341.341 0 0 1-.265.553z" class="cls-1" transform="translate(-1347.245 -741.559)"/>
                <path id="Path_6188" d="M1390.61 770.037a.339.339 0 0 1-.334-.287c-.259-1.619-1.439-2.889-2.838-4.264l-3.877-3.807a.339.339 0 1 1 .475-.485l3.877 3.807c1.149 1.127 2.722 2.671 3.033 4.642a.338.338 0 0 1-.282.39.293.293 0 0 1-.054.004z" class="cls-1" transform="translate(-1348.003 -739.521)"/>
                <path id="Path_6189" d="M1387.194 769a.343.343 0 0 1-.262-.126l-3.5-4.229a.341.341 0 0 1 .525-.435l3.5 4.234a.338.338 0 0 1-.047.478.342.342 0 0 1-.216.078z" class="cls-1" transform="translate(-1348.074 -737.428)"/>
                <path id="Path_6190" d="M1376.249 772.823h-.021l-1.852-.112a.341.341 0 0 1 .022-.68h.02l1.849.114a.339.339 0 0 1-.019.678z" class="cls-1" transform="translate(-1354.585 -731.864)"/>
                <path id="Path_6191" d="M1374.716 774.184a6.028 6.028 0 0 1-.607-.029.341.341 0 0 1-.3-.372.366.366 0 0 1 .371-.306 5.389 5.389 0 0 0 1.642-.083.34.34 0 1 1 .136.667 6.238 6.238 0 0 1-1.242.123z" class="cls-1" transform="translate(-1354.765 -730.912)"/>
                <path id="Path_6192" d="M1375.737 775.77h-.02l-1.85-.107a.337.337 0 0 1-.317-.359c.01-.187.178-.372.359-.32l1.85.109a.34.34 0 0 1-.021.679z" class="cls-1" transform="translate(-1354.944 -729.801)"/>
                <path id="Path_6193" d="M1389.752 769.369a1.049 1.049 0 0 1-.469-.109 1.1 1.1 0 0 1-.57-1.119 33.609 33.609 0 0 0-.247-6.076 1.812 1.812 0 0 1 .022-.7.851.851 0 0 1 .078-1.518 2.4 2.4 0 0 1 2.476.461 4.024 4.024 0 0 1 1.331 2.666 10.3 10.3 0 0 1-.128 2.6l-.233 1.7a2.108 2.108 0 0 1-1.932 2.051 1.444 1.444 0 0 1-.328.044z" class="cls-1" transform="translate(-1344.781 -740.515)"/>
                <path id="Path_6194" d="M1366.86 769.606a6.794 6.794 0 0 1-1.554-.18 2.639 2.639 0 0 1-1.45-.782 2.924 2.924 0 0 1-.566-1.316 19.2 19.2 0 0 1-.67-5.154 3.754 3.754 0 0 1 .594-2.037 4.339 4.339 0 0 1 2.894-1.451.855.855 0 0 1 .991.678 1.115 1.115 0 0 0 .1 1.092 29.373 29.373 0 0 0 .7 5.081c.154.782.306 1.566.433 2.352a1.364 1.364 0 0 1-.551 1.525 1.429 1.429 0 0 1-.716.191l-.205.001z" class="cls-1" transform="translate(-1362.607 -741.219)"/>
            </g>
        </g>
        <path id="Union_6" fill="none" stroke="#393939" stroke-linejoin="round" d="M29.411 40.882c.394-3.919-1.448-7.48-3.335-10.019H-99a5 5 0 0 1-5-5V-35a5 5 0 0 1 5-5h264.133a5 5 0 0 1 5 5v60.864a5 5 0 0 1-5 5H38.864c-1.741 4.508-6.9 12.176-8.788 12.175-.543-.001-.818-.639-.665-2.157z" transform="translate(182.354 339.001)"/>
        <text id="Congrats_You_made_it._Thank_you_for_your_participation." fill="#393939" font-family="Roboto-Regular, Roboto" font-size="17px" letter-spacing="0em" transform="translate(93 309)">
            <tspan x="0" y="18">Congrats! You made it.</tspan><tspan x="0" y="40">Thank you for your participation.</tspan>
        </text>
    </g>
</svg>
