<svg xmlns="http://www.w3.org/2000/svg" id="people_b" width="49" height="52" viewBox="0 0 49 52">
    <defs>
        <style>
            .cls-1{fill:#393939}
        </style>
    </defs>
    <g id="Group_2988" transform="translate(7 3)">
        <path id="Path_6251" d="M1354.545 737.674c-.8 0-1.556-.033-2.247-.074-3.221-.192-7.857-.813-10.911-3.953-2.643-2.716-3.737-7.092-3-12.007.357-2.37 1.2-3.866 2.586-4.574a.858.858 0 0 1 .781 1.528c-.856.437-1.4 1.518-1.672 3.3-.657 4.378.266 8.227 2.533 10.556 2.01 2.065 5.118 3.157 9.784 3.437a20.842 20.842 0 0 0 7.5-.635 9.679 9.679 0 0 0 5.652-4.212 10.619 10.619 0 0 0 1.125-3.3c.614-3.183.48-5.907-.827-8a.857.857 0 0 1 1.454-.907c1.536 2.463 1.755 5.624 1.059 9.233a12.447 12.447 0 0 1-1.319 3.819 11.243 11.243 0 0 1-6.642 5 19.984 19.984 0 0 1-5.856.789z" class="cls-1" transform="translate(-1338.163 -706.467)"/>
        <path id="Path_6252" d="M1350.489 745.428c-2.25 0-4.093-.611-6.808-.984a1.583 1.583 0 0 1-1.182-.592 2.1 2.1 0 0 1-.284-1.216 35.616 35.616 0 0 1 .586-7.52 12.668 12.668 0 0 1 3.749-6.826.858.858 0 1 1 1.129 1.293 11 11 0 0 0-3.2 5.9 34.514 34.514 0 0 0-.545 7.159 1.83 1.83 0 0 0 .012.274c0-.024.084.01.259.058 4.312 1.2 9 1.6 13.266.245a21.676 21.676 0 0 0-1.233-14.208.858.858 0 0 1 1.551-.734 21.987 21.987 0 0 1 1.223 15.358.854.854 0 0 1-.547.573 24.572 24.572 0 0 1-7.976 1.22zm-6.544-2.5z" class="cls-1" transform="translate(-1335.267 -698.735)"/>
        <path id="Path_6253" d="M1348.257 731.544h-.034l-2.2-.221a.345.345 0 0 1-.306-.377.368.368 0 0 1 .376-.305l2.2.221a.343.343 0 0 1-.036.684z" class="cls-1" transform="translate(-1332.76 -696.696)"/>
        <path id="Path_6254" d="M1346.656 732.779a11.252 11.252 0 0 1-1.276-.074.343.343 0 1 1 .077-.681 11.044 11.044 0 0 0 1.919.045.336.336 0 0 1 .365.317.341.341 0 0 1-.319.365c-.253.019-.511.028-.766.028z" class="cls-1" transform="translate(-1333.221 -695.708)"/>
        <path id="Path_6255" d="M1344.976 733.946a.343.343 0 0 1-.053-.681 8.746 8.746 0 0 1 2.511-.036.345.345 0 0 1 .295.386.357.357 0 0 1-.386.3 7.986 7.986 0 0 0-2.314.031.275.275 0 0 1-.053 0z" class="cls-1" transform="translate(-1333.537 -694.897)"/>
        <path id="Path_6256" d="M1347.4 735.788h-.029l-2.741-.242a.343.343 0 0 1 .06-.684l2.741.243a.343.343 0 0 1-.031.684z" class="cls-1" transform="translate(-1333.767 -693.681)"/>
        <path id="Path_6257" fill="#393939" stroke="#393939" d="M1353.566 727.99c-.782 0-1.585-.043-2.4-.123-4.075-.41-9.086-2.075-10.935-5.531a4.8 4.8 0 0 1-.209-3.888 12.094 12.094 0 0 1 5.7-6.339 15.585 15.585 0 0 1 11.623-.286 16.968 16.968 0 0 1 5.01 2.559c.451.343.88.715 1.307 1.087a15.182 15.182 0 0 0 2.188 1.683 7.594 7.594 0 0 0 4.931.957.343.343 0 0 1 .353.5 13.771 13.771 0 0 1-4.389 4.279 30.337 30.337 0 0 1-6.812 4.018 18.044 18.044 0 0 1-6.367 1.084zm-1.993-16.456a12.784 12.784 0 0 0-5.557 1.194 11.5 11.5 0 0 0-5.346 5.932 4.143 4.143 0 0 0 .163 3.349c1.72 3.219 6.5 4.783 10.4 5.172a18.672 18.672 0 0 0 8.459-.916 29.659 29.659 0 0 0 6.654-3.934 15.154 15.154 0 0 0 3.829-3.469 8.1 8.1 0 0 1-4.673-1.122 15.953 15.953 0 0 1-2.29-1.755c-.417-.362-.835-.725-1.272-1.058a16.363 16.363 0 0 0-4.809-2.456 17.831 17.831 0 0 0-5.558-.937zm-5.706.885z" transform="translate(-1337.058 -710.848)"/>
        <path id="Path_6258" d="M1340.177 720.569a.3.3 0 0 1-.053-.005.342.342 0 0 1-.285-.393c.5-3.157 3.252-5.919 7.021-7.035a14.327 14.327 0 0 1 7.812-.07 28.815 28.815 0 0 1 2.947 1.055 14.752 14.752 0 0 0 5.2 1.386 1.949 1.949 0 0 0 1.645-.573.343.343 0 0 1 .566.389 2.522 2.522 0 0 1-2.219.871 15.532 15.532 0 0 1-5.442-1.437 28.614 28.614 0 0 0-2.876-1.031 13.7 13.7 0 0 0-7.435.065c-2.67.792-5.984 2.967-6.54 6.488a.342.342 0 0 1-.341.29z" class="cls-1" transform="translate(-1336.969 -709.625)"/>
        <path id="Path_6259" d="M1340.273 720.378a.328.328 0 0 1-.127-.026.34.34 0 0 1-.192-.444c1.243-3.13 4.854-4.433 7.569-4.6a28.136 28.136 0 0 1 5.8.434c1.038.149 2.112.3 3.165.389 2.5.2 5.061.858 7.266-1.283a.343.343 0 0 1 .479.492c-2.391 2.315-5.171 1.679-7.8 1.473-1.075-.086-2.161-.244-3.208-.395a28.357 28.357 0 0 0-5.659-.429c-2.516.154-5.85 1.339-6.977 4.171a.343.343 0 0 1-.316.218z" class="cls-1" transform="translate(-1336.9 -708.904)"/>
        <path id="Path_6260" d="M1340.471 719.807a.31.31 0 0 1-.122-.024.34.34 0 0 1-.2-.441 3.8 3.8 0 0 1 2.881-2.2 10.015 10.015 0 0 1 3.541.125c.542.086 1.086.18 1.628.273a39.814 39.814 0 0 0 8.438.837c2.2-.093 6.282-.693 8.941-3.694a.34.34 0 0 1 .484-.029.344.344 0 0 1 .029.484c-2.094 2.365-5.44 3.76-9.424 3.928a42.156 42.156 0 0 1-8.582-.849c-.542-.091-1.082-.183-1.624-.273a9.348 9.348 0 0 0-3.3-.127 3.155 3.155 0 0 0-2.375 1.772.343.343 0 0 1-.315.218z" class="cls-1" transform="translate(-1336.758 -708.19)"/>
        <path id="Path_6261" d="M1353.039 720.881a25.133 25.133 0 0 1-7.433-1.11l-.321-.1c-1.626-.508-3.3-1.031-4.641-.268a.345.345 0 0 1-.47-.127.348.348 0 0 1 .127-.47c1.6-.914 3.506-.317 5.188.213l.321.1a25.265 25.265 0 0 0 22.371-3.917.343.343 0 1 1 .417.545 25.965 25.965 0 0 1-15.559 5.134z" class="cls-1" transform="translate(-1336.757 -707.788)"/>
    </g>
    <path id="Rectangle_1585" fill="none" d="M0 0H49V52H0z"/>
</svg>
